{"title":"Empty Nest Season 2 (1989 - 90) fiveofseven","uid":13125759,"size":4625076170,"categoryP":"video","categoryS":"tv_shows","magnet":"?xt=urn:btih:a76f6960bfc0f6be6b85c5528d5164514fd6b99d&amp;dn=Empty+Nest+Season+2+%281989+-+90%29+fiveofseven&amp;tr=udp%3A%2F%2Ftracker.leechers-paradise.org%3A6969&amp;tr=udp%3A%2F%2Fzer0day.ch%3A1337&amp;tr=udp%3A%2F%2Fopen.demonii.com%3A1337&amp;tr=udp%3A%2F%2Ftracker.coppersurfer.tk%3A6969&amp;tr=udp%3A%2F%2Fexodus.desync.com%3A6969","seeders":2,"leechers":0,"uploader":"fiveofseven","files":48,"time":1451774673,"description":"\nhttps://yuq.me/users/25/564/UsfGZc15bI.png \r\n  \nhttps://yuq.me/users/25/564/0GVaMCzdbs.png \r\n \r\n\r\n\r\nPLOT - The show revolves around pediatrician Dr. Harry Weston (Richard Mulligan), \r\nwhose life is turned upside down when his wife, Libby, dies, and two of his three\r\nadult daughters move back into the family home in Miami. \r\n\r\nEldest daughter Carol (Dinah Manoff) was a neurotic and high-strung recent divorcée, \r\nwhile middle daughter Barbara (Kristy McNichol) was a tough undercover police officer. \r\nThe two sisters frequently bickered and vied for the attention of their father, \r\nwhom they called &quot;Daddy.&quot; The Westons' large dog Dreyfuss was also prominently featured.\r\n\r\nAnother main character was the Westons' neighbor, Charley Dietz (David Leisure), \r\na womanizing cruise ship employee who frequently barged into \r\nthe house unannounced to borrow food or make sexist comments. \r\nCharley had a father-son relationship with Harry \r\nand a love-hate relationship with Carol.\r\n\r\nHarry works at a hospital where he was aided by his wise-cracking Southern nurse Laverne (Park Overall). \r\n\r\n\r\nINFO (Based on 1st episode only)\r\n\r\nEncoder: fiveofseven\r\nSource: SDTV \r\n(Not HD, LAFF logo remains in screen &amp; usually 2 quick banners per episode)  \nhttps://yuq.me/users/25/564/NcLX9aRmjk.png \r\nRating: TV-PG\r\nGenre: Comedy, Family\r\nSubtitles: English\r\n\r\nGeneral\r\nComplete name                            : 01 Settling - fiveofseven.mp4\r\nFormat                                   : MPEG-4\r\nFormat profile                           : Base Media\r\nCodec ID                                 : isom\r\nFile size                                : 185 MiB\r\nDuration                                 : 22mn 46s (est 22 - 23 mins each)\r\nOverall bit rate mode                    : Variable\r\nOverall bit rate                         : 1 132 Kbps\r\nEncoded date                             : UTC 2015-10-21 09:43:08\r\nTagged date                              : UTC 2015-10-21 10:04:10\r\nWriting application                      : My MP4Box GUI 0.6.0.6 &lt;http://my-mp4box-gui.zymichost.com&gt;\r\n\r\nVideo\r\nID                                       : 1\r\nFormat                                   : AVC\r\nFormat/Info                              : Advanced Video Codec\r\nFormat profile                           :   \r\nFormat settings, CABAC                   : Yes\r\nFormat settings, ReFrames                : 7 frames\r\nCodec ID                                 : avc1\r\nCodec ID/Info                            : Advanced Video Coding\r\nDuration                                 : 22mn 46s\r\nBit rate                                 : 1 000 Kbps\r\nMaximum bit rate                         : 2 441 Kbps\r\nWidth                                    : 648 pixels\r\nHeight                                   : 472 pixels\r\nDisplay aspect ratio                     : 1.373\r\nFrame rate mode                          : Constant\r\nFrame rate                               : 29.970 fps\r\nColor space                              : YUV\r\nChroma subsampling                       : 4:2:0\r\nBit depth                                : 8 bits\r\nScan type                                : Progressive\r\nBits/(Pixel*Frame)                       : 0.109\r\nStream size                              : 163 MiB (88%)\r\nTitle                                    : en.mp4\r\nWriting library                          : x264 core 146 r2538 121396c\r\nLanguage                                 : English\r\nEncoded date                             : UTC 2015-10-21 02:36:57\r\nTagged date                              : UTC 2015-10-21 09:43:13\r\n\r\nAudio\r\nID                                       : 2\r\nFormat                                   : AAC\r\nFormat/Info                              : Advanced Audio Codec\r\nFormat profile                           : LC\r\nCodec ID                                 : 40\r\nDuration                                 : 22mn 46s\r\nBit rate mode                            : Variable\r\nBit rate                                 : 128 Kbps\r\nMaximum bit rate                         : 133 Kbps\r\nChannel count                            : 2 channels\r\nChannel positions                        : Front: L R\r\nSampling rate                            : 48.0 KHz\r\nCompression mode                         : Lossy\r\nDelay relative to video                  : 75ms\r\nStream size                              : 20.9 MiB (11%)\r\nTitle                                    : aac.mp4\r\nLanguage                                 : English\r\nEncoded date                             : UTC 2015-10-21 09:43:11\r\nTagged date                              : UTC 2015-10-21 09:43:13\r\n\r\n\r\nScreenshots - \r\n  \nhttps://yuq.me/users/25/564/09Ow7kSr42.png \r\n  \nhttps://yuq.me/users/25/564/UIx12kMGNf.png \r\n  \nhttps://yuq.me/users/25/564/C0tr7nSIWH.png \r\n  \nhttps://yuq.me/users/25/564/1I9L07b8uG.png \r\n \r\nsignature \r\n  \nhttps://yuq.me/users/25/564/aegRQCBILx.png","torrent":{"xt":"urn:btih:a76f6960bfc0f6be6b85c5528d5164514fd6b99d","amp;dn":"Empty+Nest+Season+2+%281989+-+90%29+fiveofseven","amp;tr":["udp%3A%2F%2Ftracker.leechers-paradise.org%3A6969","udp%3A%2F%2Fzer0day.ch%3A1337","udp%3A%2F%2Fopen.demonii.com%3A1337","udp%3A%2F%2Ftracker.coppersurfer.tk%3A6969","udp%3A%2F%2Fexodus.desync.com%3A6969"],"infoHash":"a76f6960bfc0f6be6b85c5528d5164514fd6b99d","infoHashBuffer":{"type":"Buffer","data":[167,111,105,96,191,192,246,190,107,133,197,82,141,81,100,81,79,214,185,157]},"announce":[],"urlList":[]}}